# xmcd CD Database Entry
#
# Track frame offsets:
# 150
# 22505
# 43930
# 63602
# 80240
# 103452
# 122207
# 142797
# 164467
# 181987
# 203955
# 227592
#
# Disc length: 3355 seconds
#
# Revision: 2
# Processed by: cddbd v1.4PL0 Copyright (c) Steve Scherf et al.
# Submitted via: tcd 2.0b
#
DISCID=a70d190c
DTITLE=Jimmy Rogers All Stars - Blues Blues Blues
DYEAR=1900
DGENRE=
TTITLE0=Blow Wind Blow
TTITLE1=Blues All Day Long
TTITLE2=Trouble No More
TTITLE3=Bright Lights Big City
TTITLE4=Ev'ry Day I Have The Blues
TTITLE5=Sweet Home Chicago
TTITLE6=Don't Start Me To Talkin'
TTITLE7=That's All Right
TTITLE8=Ludella
TTITLE9=Going' Away Baby
TTITLE10=Worried Life Blues
TTITLE11=Gonna Shot You Right Down (Boom Boom)
EXTD=
EXTT0=
EXTT1=
EXTT2=
EXTT3=
EXTT4=
EXTT5=
EXTT6=
EXTT7=
EXTT8=
EXTT9=
EXTT10=
EXTT11=
PLAYORDER=
